<svg xmlns="http://www.w3.org/2000/svg" viewBox="0 0 640 420" role="img" aria-labelledby="t d"><title id="t">مساحة تعلم رقمية</title><desc id="d">رسم تعليمي لكتاب ولوحة تقدم ومصباح معرفة</desc><defs><linearGradient id="g1" x1="0" y1="0" x2="1" y2="1"><stop offset="0" stop-color="#0b8f88"/><stop offset="1" stop-color="#083d54"/></linearGradient><linearGradient id="g2" x1="0" y1="0" x2="1" y2="1"><stop offset="0" stop-color="#f5c967"/><stop offset="1" stop-color="#d39b36"/></linearGradient></defs><rect width="640" height="420" rx="36" fill="#f5fafb"/><circle cx="520" cy="92" r="66" fill="#e4f3f2"/><circle cx="108" cy="330" r="54" fill="#fff2d9"/><rect x="110" y="85" width="420" height="244" rx="26" fill="#fff" stroke="#d9e8eb" stroke-width="4"/><rect x="132" y="108" width="214" height="198" rx="18" fill="url(#g1)"/><path d="M170 157h138M170 190h94M170 223h122" stroke="#dff6f3" stroke-width="12" stroke-linecap="round"/><circle cx="260" cy="270" r="15" fill="#f6d37e"/><rect x="370" y="124" width="130" height="22" rx="11" fill="#dce9ec"/><rect x="370" y="166" width="102" height="22" rx="11" fill="#e7eff1"/><rect x="370" y="208" width="116" height="22" rx="11" fill="#e7eff1"/><rect x="370" y="250" width="84" height="22" rx="11" fill="#e7eff1"/><path d="M170 346c38-54 101-54 139 0 38-54 101-54 139 0" fill="#fff" stroke="#0b8f88" stroke-width="10" stroke-linejoin="round"/><path d="M309 346v-72" stroke="#0b8f88" stroke-width="8" stroke-linecap="round"/><path d="M516 240c0-31 25-56 56-56s56 25 56 56c0 21-12 40-29 49v31h-54v-31c-17-9-29-28-29-49z" transform="translate(-34 22) scale(.72)" fill="url(#g2)"/><path d="M530 354h54" stroke="#9c6a22" stroke-width="8" stroke-linecap="round"/><circle cx="96" cy="86" r="13" fill="#0b8f88"/><circle cx="71" cy="112" r="8" fill="#d3a64a"/><circle cx="548" cy="332" r="10" fill="#7258c7"/></svg>