<svg xmlns="http://www.w3.org/2000/svg" viewBox="0 0 900 520" role="img" aria-labelledby="title desc"><title id="title">مشهد تعليمي تفاعلي</title><desc id="desc">طالب يذاكر أمام شاشة تعليمية مع كتب ومؤشرات تقدم</desc><defs><linearGradient id="bg" x1="0" y1="0" x2="1" y2="1"><stop offset="0" stop-color="#eef9f7"/><stop offset="1" stop-color="#eef3ff"/></linearGradient><linearGradient id="desk" x1="0" x2="1"><stop offset="0" stop-color="#173f55"/><stop offset="1" stop-color="#0b7f78"/></linearGradient></defs><rect width="900" height="520" rx="38" fill="url(#bg)"/><circle cx="760" cy="92" r="58" fill="#d9efe9"/><circle cx="112" cy="100" r="34" fill="#e6dcfa"/><rect x="220" y="74" width="470" height="286" rx="26" fill="#fff" stroke="#dbe8ec" stroke-width="6"/><rect x="250" y="108" width="210" height="22" rx="11" fill="#173f55" opacity=".9"/><rect x="250" y="151" width="380" height="14" rx="7" fill="#dfe9ed"/><rect x="250" y="181" width="310" height="14" rx="7" fill="#dfe9ed"/><rect x="250" y="231" width="105" height="88" rx="18" fill="#eaf6f4"/><path d="M274 293l18-22 17 13 20-29" fill="none" stroke="#0b7f78" stroke-width="8" stroke-linecap="round" stroke-linejoin="round"/><rect x="376" y="231" width="105" height="88" rx="18" fill="#f3eefc"/><circle cx="428" cy="274" r="24" fill="none" stroke="#7158c6" stroke-width="10" stroke-dasharray="95 55" transform="rotate(-90 428 274)"/><rect x="502" y="231" width="128" height="20" rx="10" fill="#d8e8ff"/><rect x="502" y="265" width="96" height="20" rx="10" fill="#d8e8ff"/><rect x="502" y="299" width="116" height="20" rx="10" fill="#d8e8ff"/><rect x="96" y="368" width="710" height="54" rx="22" fill="url(#desk)"/><rect x="138" y="324" width="122" height="44" rx="9" fill="#d3a64a"/><rect x="148" y="300" width="116" height="24" rx="7" fill="#a54e61"/><rect x="157" y="278" width="104" height="22" rx="7" fill="#4266b2"/><circle cx="720" cy="334" r="34" fill="#173f55"/><path d="M694 404c8-48 44-69 74-69s63 23 68 69" fill="#0b7f78"/><circle cx="765" cy="281" r="35" fill="#f2c7a5"/><path d="M731 278c4-31 21-49 49-46 18 2 31 14 34 30-19-4-39-6-57 0-9 3-18 9-26 16Z" fill="#173f55"/><path d="M731 396c-15-20-30-29-48-30l-38 20 26 36h94Z" fill="#ffffff" stroke="#dbe8ec" stroke-width="5"/><rect x="628" y="380" width="92" height="58" rx="10" fill="#fff" stroke="#cddde3" stroke-width="5"/><path d="M663 409h22" stroke="#0b7f78" stroke-width="6" stroke-linecap="round"/><g opacity=".9"><circle cx="171" cy="176" r="8" fill="#0b7f78"/><circle cx="140" cy="204" r="6" fill="#7158c6"/><circle cx="782" cy="176" r="7" fill="#d3a64a"/></g></svg>